<svg xmlns="http://www.w3.org/2000/svg" viewBox="0 0 488.65 195.93"><defs><style>.cls-1{fill:none;}.cls-2{fill:#007874;}.cls-3{fill:#01aaa5;}.cls-4{fill:#066a96;}.cls-5{fill:#19455c;}.cls-6{fill:#00415d;}.cls-7{fill:#04182f;}.cls-8{isolation:isolate;}</style></defs><g id="Layer_2" data-name="Layer 2"><g id="Layer_1-2" data-name="Layer 1"><g id="Layer_2-2" data-name="Layer 2"><g id="Layer_1-2-2" data-name="Layer 1-2"><path d="M69,29.12a79.69,79.69,0,0,0-13-5.39A44.36,44.36,0,0,0,42.5,21.51q-8.88,0-14.11,4a13.16,13.16,0,0,0-5.23,11,12,12,0,0,0,3.49,8.56,31.16,31.16,0,0,0,9,6.34q5.55,2.7,11.73,5.07A91,91,0,0,1,57.76,61a42.43,42.43,0,0,1,9.35,6.42,27.22,27.22,0,0,1,6.66,9.43,34.16,34.16,0,0,1,2.46,13.7A31,31,0,0,1,58.71,119q-8.48,4.36-20.52,4.36A60.55,60.55,0,0,1,24,121.7a72,72,0,0,1-13-4.44,74.71,74.71,0,0,1-11-6.1l7.64-13.1a65.24,65.24,0,0,0,8.72,5.15,54.2,54.2,0,0,0,10.22,3.89,38.91,38.91,0,0,0,10.06,1.42A30.18,30.18,0,0,0,47,106.7a19.39,19.39,0,0,0,8.39-5.7q3.33-3.89,3.33-10.23a14.32,14.32,0,0,0-2.93-9.11A25.84,25.84,0,0,0,48,75.24a76.07,76.07,0,0,0-10.39-4.75q-5.39-2.07-10.93-4.6a55.64,55.64,0,0,1-10.3-6.1,27.69,27.69,0,0,1-7.69-8.88A26.71,26.71,0,0,1,5.74,37.84,29.44,29.44,0,0,1,10.1,21.75,30.14,30.14,0,0,1,22.22,10.9,43.5,43.5,0,0,1,40.13,6.46,63.84,63.84,0,0,1,60.26,9.31a77.72,77.72,0,0,1,15.21,6.82Z"/><path d="M90.53,122.15V3.29h.15L151.88,90l-7.29-1.58L205.43,3.29h.32V122.15H189V41.48l1.11,8.72-42.48,60.07h-.32L104,50.2l2.88-7.92v79.87Z"/><path d="M359,7.09a54.75,54.75,0,0,1,16.72,2.46,38.36,38.36,0,0,1,13.16,7.05,32.08,32.08,0,0,1,8.55,11.33,37.07,37.07,0,0,1,3.1,15.61A45.54,45.54,0,0,1,398.47,57a34.07,34.07,0,0,1-6.66,12,32.79,32.79,0,0,1-12.05,8.64q-7.44,3.24-18.54,3.25h-16.8v41.2h-17V7.09Zm1.88,57.69a25.3,25.3,0,0,0,10.86-2.06,18.66,18.66,0,0,0,6.81-5.15A19.16,19.16,0,0,0,382,50.91,24.75,24.75,0,0,0,383,44a23.46,23.46,0,0,0-1-6.66,20.19,20.19,0,0,0-3.49-6.65A18.6,18.6,0,0,0,372,25.48a22.41,22.41,0,0,0-10.1-2.06H344.42V64.78Zm19.5,9.83,29.79,47.54H390.54L360.27,75.08Z"/><path d="M411.94,7.09h76.71V23.42H458.37v98.73H441.42V23.42H411.94Z"/><line class="cls-1" x1="259.03" y1="89.68" x2="258.99" y2="89.93"/><polygon class="cls-2" points="266.13 0 232.15 119.1 214.33 122.47 266.13 0"/><path class="cls-3" d="M278.63,29.58h0l-.95,2.48-12.26,32.2-.33.87A13.6,13.6,0,0,0,259,89.92l-3.2,24.68-23.64,4.49L266.13,0Z"/><polygon class="cls-4" points="317.88 122.48 312.65 121.47 280.73 39.85 282.07 37.71 317.88 122.48"/><polygon class="cls-5" points="282.07 37.72 280.73 39.85 277.68 32.06 278.63 29.59 282.07 37.72"/><line class="cls-1" x1="273.93" y1="90.1" x2="273.88" y2="89.68"/><path class="cls-6" d="M312.66,121.47l-36.38-7-2.35-24.41a13.59,13.59,0,0,0-7.34-25,12.58,12.58,0,0,0-1.5.09l.33-.87,15.31-24.42Z"/><polygon class="cls-7" points="280.73 39.85 265.42 64.27 277.68 32.06 280.73 39.85"/><g class="cls-8"><g class="cls-8"><path class="cls-3" d="M38.58,170.34a11.14,11.14,0,0,1-2.49,1.51,27.72,27.72,0,0,1-3.53,1.33,31.49,31.49,0,0,1-4,.95,22,22,0,0,1-3.82.35,25.35,25.35,0,0,1-9.27-1.6,20.55,20.55,0,0,1-7-4.44A19.36,19.36,0,0,1,4,161.75a21.9,21.9,0,0,1-1.57-8.36,25,25,0,0,1,1.74-9.57,21,21,0,0,1,4.8-7.17,20.83,20.83,0,0,1,7-4.44,23.45,23.45,0,0,1,8.42-1.51,25.91,25.91,0,0,1,12.56,3.14l-2,5.27a15.31,15.31,0,0,0-2.93-1.3,31,31,0,0,0-3.58-1,16.59,16.59,0,0,0-3.44-.38,19.41,19.41,0,0,0-6.87,1.15,14.4,14.4,0,0,0-8.65,8.53A18.61,18.61,0,0,0,8.3,153a16.62,16.62,0,0,0,1.19,6.4,14.39,14.39,0,0,0,3.37,5,15.29,15.29,0,0,0,5.25,3.26,18.81,18.81,0,0,0,6.72,1.16,21,21,0,0,0,4.33-.45,13.85,13.85,0,0,0,3.67-1.27v-8.53H24.3V153H38.58Z"/></g><g class="cls-8"><path class="cls-3" d="M60.91,131.17a20.16,20.16,0,0,1,6,.86,13.81,13.81,0,0,1,4.8,2.55,11.9,11.9,0,0,1,3.2,4.15,13.29,13.29,0,0,1,1.16,5.71,17.11,17.11,0,0,1-.74,5A12,12,0,0,1,68.4,157a16.78,16.78,0,0,1-6.78,1.22H55.28V174H49.53V131.17Zm.59,21.57a10.3,10.3,0,0,0,4.24-.77,6.86,6.86,0,0,0,2.63-2,7.8,7.8,0,0,0,1.37-2.63,9.81,9.81,0,0,0,.41-2.67,9,9,0,0,0-.44-2.69,7.61,7.61,0,0,0-4-4.54,8.67,8.67,0,0,0-3.82-.77H55.28v16.06Zm7,3.26,11.2,18H73.11L61.74,156.18Z"/></g><g class="cls-8"><path class="cls-3" d="M85,152.62a21.12,21.12,0,0,1,1.68-8.38,22.67,22.67,0,0,1,11.68-11.79,21.37,21.37,0,0,1,16.94,0,22.7,22.7,0,0,1,7,4.8,22.27,22.27,0,0,1,4.77,7,20.64,20.64,0,0,1,1.72,8.38,21.14,21.14,0,0,1-1.72,8.53,21.48,21.48,0,0,1-4.77,7,22.35,22.35,0,0,1-7,4.68,21.14,21.14,0,0,1-8.44,1.69,21.76,21.76,0,0,1-8.5-1.65,22.17,22.17,0,0,1-7-4.63,21.29,21.29,0,0,1-4.71-6.93A22,22,0,0,1,85,152.62Zm5.92.06A16.18,16.18,0,0,0,92.13,159a16.68,16.68,0,0,0,3.44,5.18,15.87,15.87,0,0,0,5.1,3.53,16,16,0,0,0,12.5,0,15.26,15.26,0,0,0,5-3.53,17.06,17.06,0,0,0,3.38-5.18,16.16,16.16,0,0,0,1.25-6.37A16.63,16.63,0,0,0,118.15,141a16.25,16.25,0,0,0-5.1-3.53,15.31,15.31,0,0,0-6.22-1.27,15.12,15.12,0,0,0-6.28,1.3,16.44,16.44,0,0,0-5.1,3.56,15.77,15.77,0,0,0-3.37,5.24A17,17,0,0,0,90.89,152.68Z"/><path class="cls-3" d="M143.56,158.84A9.75,9.75,0,0,0,145,164a10,10,0,0,0,3.7,3.58,10.41,10.41,0,0,0,5.21,1.3,11,11,0,0,0,5.39-1.3A9.75,9.75,0,0,0,163,164a9.9,9.9,0,0,0,1.36-5.19V131.17H170V159a15.25,15.25,0,0,1-2.16,8.18,14.77,14.77,0,0,1-5.81,5.39,17.45,17.45,0,0,1-8.15,1.89,17.2,17.2,0,0,1-8.11-1.89A14.55,14.55,0,0,1,140,167.2a15.41,15.41,0,0,1-2.13-8.18V131.17h5.68Z"/><path class="cls-3" d="M193.15,131.17a18.65,18.65,0,0,1,8,1.57,11.75,11.75,0,0,1,5.13,4.53,13.58,13.58,0,0,1,1.81,7.17,16.78,16.78,0,0,1-.77,5,12.76,12.76,0,0,1-2.46,4.44,11.87,11.87,0,0,1-4.42,3.17,16.58,16.58,0,0,1-6.63,1.19h-6.34V174h-5.75V131.17Zm.6,21.57a9.37,9.37,0,0,0,4.2-.83,7.09,7.09,0,0,0,2.61-2.1,8.38,8.38,0,0,0,1.36-2.7,9.13,9.13,0,0,0,.42-2.55,9.23,9.23,0,0,0-.42-2.69,6.93,6.93,0,0,0-1.39-2.55,7.48,7.48,0,0,0-2.55-1.9,9.1,9.1,0,0,0-3.88-.74h-6.63v16.06Z"/></g><g class="cls-8"><path class="cls-3" d="M247.13,131.17a18.71,18.71,0,0,1,8,1.57,11.72,11.72,0,0,1,5.12,4.53,13.49,13.49,0,0,1,1.81,7.17,16.78,16.78,0,0,1-.77,5,12.6,12.6,0,0,1-2.46,4.44,11.91,11.91,0,0,1-4.41,3.17,16.63,16.63,0,0,1-6.64,1.19h-6.34V174h-5.75V131.17Zm.59,21.57a9.45,9.45,0,0,0,4.21-.83,7.13,7.13,0,0,0,2.6-2.1,8.41,8.41,0,0,0,1.37-2.7,8.57,8.57,0,0,0,0-5.24,7,7,0,0,0-1.4-2.55,7.53,7.53,0,0,0-2.54-1.9,9.13,9.13,0,0,0-3.88-.74h-6.64v16.06Z"/></g><g class="cls-8"><path class="cls-3" d="M262.59,174l18.72-44.62h.35L300.33,174h-6.58l-14-35.61,4.09-2.67L268.21,174Zm11-16.23h15.94l1.89,5H271.89Z"/><path class="cls-3" d="M345.48,175.37l-33.12-33.59,1.65.41.12,31.82h-5.74V129.87h.29l32.77,33.71-1.37-.29L340,131.17h5.68v44.2Z"/><path class="cls-3" d="M353.71,174l18.72-44.62h.36L391.45,174h-6.57l-14-35.61,4.09-2.67L359.34,174Zm11-16.23h15.94l1.9,5H363Z"/><path class="cls-3" d="M399.51,174v-44.2h.06L422,161.69l-2.43-.48L442,129.81h.12V174h-5.69V142.84l.36,2.91L420.6,168.62h-.11l-16.42-22.87,1-2.67V174Z"/><path class="cls-3" d="M450.17,174l18.72-44.62h.36L487.91,174h-6.58l-14-35.61,4.09-2.67L455.8,174Zm11-16.23h15.94l1.89,5H459.47Z"/></g></g><g class="cls-8"><g class="cls-8"><path d="M134.47,182.48h8.6v.87H139.2v12.27h-.9V183.35h-3.83Z"/><path d="M146.2,182.48h8.11v.87h-7.2v5.22h6.48v.87h-6.48v5.31h7.46v.87H146.2Z"/><path d="M167.47,194.75a8.09,8.09,0,0,1-1,.5,6.22,6.22,0,0,1-1.22.38,7.36,7.36,0,0,1-1.45.14,6.84,6.84,0,0,1-2.72-.53A6.29,6.29,0,0,1,159,193.8a6.48,6.48,0,0,1-1.34-2.11,6.8,6.8,0,0,1-.47-2.55,7,7,0,0,1,.5-2.68,6.59,6.59,0,0,1,1.4-2.17,6.73,6.73,0,0,1,6.67-1.68,7,7,0,0,1,1.64.72l-.38.83a6.86,6.86,0,0,0-1.47-.68,5.13,5.13,0,0,0-1.72-.28,5.45,5.45,0,0,0-2.2.45,5.88,5.88,0,0,0-3.06,3.14,6.37,6.37,0,0,0,0,4.55,5.39,5.39,0,0,0,1.15,1.86,5.31,5.31,0,0,0,1.8,1.24,5.76,5.76,0,0,0,2.35.46,5.57,5.57,0,0,0,1.77-.27A5.91,5.91,0,0,0,167,194Z"/><path d="M180.56,182.48v13.14h-.91v-6.18h-7.92v6.18h-.91V182.48h.91v6.11h7.92v-6.11Z"/><path d="M195.73,195.93l-10.36-11.68.24-.18,0,11.55h-.89V182.2h0L195.16,194l-.24.08,0-11.57h.87v13.45Z"/><path d="M199.12,189.07a6.46,6.46,0,0,1,.52-2.6,6.82,6.82,0,0,1,3.58-3.61,6.67,6.67,0,0,1,5.21,0,6.77,6.77,0,0,1,2.15,1.46,6.85,6.85,0,0,1,1.45,2.15,6.64,6.64,0,0,1,0,5.2,6.81,6.81,0,0,1-1.45,2.14,6.88,6.88,0,0,1-2.15,1.44,6.51,6.51,0,0,1-2.61.52,6.84,6.84,0,0,1-2.6-.5,6.53,6.53,0,0,1-2.14-1.41,6.42,6.42,0,0,1-1.44-2.13A6.64,6.64,0,0,1,199.12,189.07Zm.93,0a5.64,5.64,0,0,0,.44,2.25,5.77,5.77,0,0,0,1.24,1.86,5.91,5.91,0,0,0,1.84,1.24,5.43,5.43,0,0,0,2.23.46,5.56,5.56,0,0,0,2.28-.46,5.79,5.79,0,0,0,3.1-3.1,5.71,5.71,0,0,0,.45-2.27,5.78,5.78,0,0,0-.45-2.27,5.95,5.95,0,0,0-3.1-3.14,5.75,5.75,0,0,0-4.53,0A6,6,0,0,0,201.7,185a5.89,5.89,0,0,0-1.65,4.13Z"/></g><g class="cls-8"><path d="M215.93,182.48h.91v12.27H224v.87h-8.11Z"/></g><g class="cls-8"><path d="M226.15,189.07a6.46,6.46,0,0,1,.52-2.6,6.66,6.66,0,0,1,1.44-2.15,6.84,6.84,0,0,1,2.14-1.46,6.46,6.46,0,0,1,2.6-.53,6.58,6.58,0,0,1,2.61.53,6.88,6.88,0,0,1,2.15,1.46,7,7,0,0,1,1.45,2.15,6.64,6.64,0,0,1,0,5.2,6.76,6.76,0,0,1-3.6,3.58,6.57,6.57,0,0,1-2.61.52,6.8,6.8,0,0,1-2.6-.5,6.53,6.53,0,0,1-2.14-1.41,6.27,6.27,0,0,1-1.44-2.13A6.64,6.64,0,0,1,226.15,189.07Zm.92,0a5.84,5.84,0,0,0,1.69,4.11,5.8,5.8,0,0,0,1.84,1.24,5.43,5.43,0,0,0,2.23.46,5.6,5.6,0,0,0,2.28-.46,5.79,5.79,0,0,0,3.1-3.1,5.71,5.71,0,0,0,.45-2.27,5.78,5.78,0,0,0-.45-2.27,5.95,5.95,0,0,0-3.1-3.14,5.57,5.57,0,0,0-2.26-.46,5.64,5.64,0,0,0-2.28.47,6.11,6.11,0,0,0-1.84,1.29,6,6,0,0,0-1.66,4.13Z"/></g><g class="cls-8"><path d="M252.86,194.69a4.57,4.57,0,0,1-.8.42,9.19,9.19,0,0,1-1,.34,8.27,8.27,0,0,1-1.1.23,6.81,6.81,0,0,1-1.07.09,7.35,7.35,0,0,1-2.8-.51,6.33,6.33,0,0,1-2.14-1.41,6.24,6.24,0,0,1-1.36-2.09,7.08,7.08,0,0,1-.47-2.58,6.93,6.93,0,0,1,.53-2.76,6.51,6.51,0,0,1,1.45-2.17,6.35,6.35,0,0,1,2.15-1.42,6.79,6.79,0,0,1,2.59-.5,7.23,7.23,0,0,1,1.95.26,7.08,7.08,0,0,1,1.66.7l-.34.82a4.75,4.75,0,0,0-1-.46,6.87,6.87,0,0,0-1.1-.3,5.38,5.38,0,0,0-1.12-.11,5.93,5.93,0,0,0-2.33.44,5.65,5.65,0,0,0-3.11,3.11,6.3,6.3,0,0,0,0,4.6,5.49,5.49,0,0,0,1.18,1.83,5.19,5.19,0,0,0,1.85,1.22,6.27,6.27,0,0,0,2.38.44,7.23,7.23,0,0,0,1.63-.19,5.17,5.17,0,0,0,1.47-.53v-3.65h-3v-.87h3.87Z"/></g><g class="cls-8"><path d="M259.69,190.94l-4.9-8.46h1.11l4.42,7.7-.31,0,4.4-7.72h1.1l-4.91,8.46v4.68h-.91Z"/><path d="M280.61,184a8.29,8.29,0,0,0-1.41-.52,6,6,0,0,0-1.66-.24,3.16,3.16,0,0,0-2.08.65,2,2,0,0,0-.77,1.63,1.8,1.8,0,0,0,.44,1.23,3.89,3.89,0,0,0,1.17.83q.72.35,1.53.66c.44.16.86.34,1.29.53a5.29,5.29,0,0,1,1.16.73,3,3,0,0,1,.82,1,3.61,3.61,0,0,1,.31,1.56,3.67,3.67,0,0,1-.52,1.93,3.54,3.54,0,0,1-1.45,1.31,4.82,4.82,0,0,1-2.14.46,6.25,6.25,0,0,1-1.79-.24,7.39,7.39,0,0,1-1.41-.57c-.4-.21-.72-.39-1-.54l.43-.74a8.35,8.35,0,0,0,1,.59,7.63,7.63,0,0,0,1.27.5,4.92,4.92,0,0,0,1.36.2,4,4,0,0,0,1.55-.31,3,3,0,0,0,1.24-1,2.54,2.54,0,0,0,.49-1.62,2.37,2.37,0,0,0-.46-1.52,3.65,3.65,0,0,0-1.19-1,15.31,15.31,0,0,0-1.53-.66q-.63-.24-1.26-.51a6.11,6.11,0,0,1-1.15-.65,3,3,0,0,1-.82-.91,2.53,2.53,0,0,1-.31-1.3,2.86,2.86,0,0,1,.48-1.65,3.29,3.29,0,0,1,1.31-1.1,4.64,4.64,0,0,1,1.88-.42,7.76,7.76,0,0,1,1.88.24,7.38,7.38,0,0,1,1.65.62Z"/></g><g class="cls-8"><path d="M288.37,190.94l-4.9-8.46h1.11l4.42,7.7-.31,0,4.4-7.72h1.1l-4.91,8.46v4.68h-.91Z"/></g><g class="cls-8"><path d="M303.3,184a8.48,8.48,0,0,0-1.4-.52,6,6,0,0,0-1.67-.24,3.13,3.13,0,0,0-2.07.65,2,2,0,0,0-.78,1.63,1.8,1.8,0,0,0,.44,1.23,3.89,3.89,0,0,0,1.17.83c.48.23,1,.45,1.54.66s.86.34,1.28.53a5.29,5.29,0,0,1,1.16.73,3,3,0,0,1,.82,1,3.47,3.47,0,0,1,.31,1.56,3.51,3.51,0,0,1-2,3.24,4.89,4.89,0,0,1-2.15.46,6.3,6.3,0,0,1-1.79-.24,7.28,7.28,0,0,1-1.4-.57q-.6-.32-1-.54l.43-.74a8.35,8.35,0,0,0,1,.59,7.63,7.63,0,0,0,1.27.5,4.94,4.94,0,0,0,1.37.2,3.92,3.92,0,0,0,1.54-.31,2.94,2.94,0,0,0,1.24-1,2.54,2.54,0,0,0,.49-1.62,2.37,2.37,0,0,0-.46-1.52,3.61,3.61,0,0,0-1.18-1,16.58,16.58,0,0,0-1.54-.66q-.63-.24-1.26-.51a6.11,6.11,0,0,1-1.15-.65,3,3,0,0,1-.82-.91,2.63,2.63,0,0,1-.31-1.3,2.79,2.79,0,0,1,.49-1.65,3.26,3.26,0,0,1,1.3-1.1,4.68,4.68,0,0,1,1.88-.42,7.69,7.69,0,0,1,1.88.24,7.2,7.2,0,0,1,1.65.62Z"/></g><g class="cls-8"><path d="M306.25,182.48h8.6v.87H311v12.27h-.9V183.35h-3.83Z"/><path d="M318,182.48h8.11v.87h-7.2v5.22h6.48v.87h-6.48v5.31h7.46v.87H318Z"/><path d="M329.81,195.62V182.18h0l6.48,9.2-.39,0,6.46-9.15h0v13.44h-.89V184.27l.07.45-5.48,7.72h0l-5.52-7.72.15-.41v11.31Z"/><path d="M353.15,184a8.29,8.29,0,0,0-1.41-.52,6,6,0,0,0-1.66-.24,3.11,3.11,0,0,0-2.07.65,2,2,0,0,0-.78,1.63,1.8,1.8,0,0,0,.44,1.23,3.89,3.89,0,0,0,1.17.83q.72.35,1.53.66c.44.16.86.34,1.29.53a5.29,5.29,0,0,1,1.16.73,3,3,0,0,1,.82,1,3.61,3.61,0,0,1,.31,1.56,3.67,3.67,0,0,1-.52,1.93,3.54,3.54,0,0,1-1.45,1.31,4.82,4.82,0,0,1-2.14.46,6.25,6.25,0,0,1-1.79-.24,7.39,7.39,0,0,1-1.41-.57c-.4-.21-.72-.39-.95-.54l.43-.74a8.35,8.35,0,0,0,1,.59,7.63,7.63,0,0,0,1.27.5,4.92,4.92,0,0,0,1.36.2,4,4,0,0,0,1.55-.31,3,3,0,0,0,1.24-1,2.54,2.54,0,0,0,.49-1.62,2.37,2.37,0,0,0-.46-1.52,3.65,3.65,0,0,0-1.19-1,15.31,15.31,0,0,0-1.53-.66l-1.26-.51a6.11,6.11,0,0,1-1.15-.65,3,3,0,0,1-.82-.91,2.53,2.53,0,0,1-.31-1.3,2.86,2.86,0,0,1,.48-1.65,3.29,3.29,0,0,1,1.31-1.1,4.64,4.64,0,0,1,1.88-.42,7.76,7.76,0,0,1,1.88.24,7.38,7.38,0,0,1,1.65.62Z"/></g></g></g></g></g></g></svg>