<svg xmlns="http://www.w3.org/2000/svg" viewBox="0 0 512.91 511.36"><defs><style>.cls-1{fill:#01aaa5;opacity:0.6;}.cls-2{fill:#c6d0e0;}.cls-3,.cls-8{fill:none;}.cls-4{fill:#d1d3d4;}.cls-5{fill:#58595b;}.cls-6{fill:#d40029;}.cls-7{fill:#00415d;}.cls-7,.cls-8{stroke:#00415d;}.cls-13,.cls-7,.cls-8{stroke-miterlimit:10;}.cls-8{stroke-linecap:round;stroke-width:6.09px;}.cls-9{fill:#e6e7e8;}.cls-10{fill:#6d6e71;}.cls-11{fill:#939598;}.cls-12{fill:#fffa82;opacity:0.23;}.cls-13{fill:#c9edec;stroke:#fff;}.cls-14{fill:#f1f2f2;}.cls-15{fill:#fff;}.cls-16{fill:#d9d9d9;}.cls-17{fill:#b0b0b0;}.cls-18{fill:#ffde17;}.cls-19{fill:#231f20;}</style></defs><g id="Layer_2" data-name="Layer 2"><g id="Warning"><path class="cls-1" d="M99,484s-112.79-38.3-61-113.36,46.84-76.6,29.58-103.41S50.88,180,92.79,149.31,111.9,116.38,122.38,75,177.23-12.3,227.16,3,303,74.25,355.36,64.29s73.34,53.62,50.54,95,48.69,91.85,48.69,91.85,32.67,13.85,12.33,56,29.58,81.19,29.58,81.19S552,446.51,458.9,484Z"/><polygon class="cls-2" points="448.34 414.92 448.34 456.46 0 456.46 0 414.92 117.85 414.92 97.27 434.12 97.27 442.49 403.28 442.49 403.28 434.12 383.33 414.92 448.34 414.92"/><rect class="cls-2" x="9.07" y="456.59" width="6.89" height="54.38"/><rect class="cls-2" x="32.17" y="456.85" width="6.89" height="54.38"/><rect class="cls-2" x="408" y="456.97" width="6.89" height="54.38"/><rect class="cls-2" x="432.86" y="456.72" width="6.89" height="54.38"/><polyline class="cls-3" points="448.34 478.16 448.34 456.46 448.34 414.92 448.34 395.22"/><path class="cls-4" d="M285.12,164.29a27.37,27.37,0,0,1-3.45,10.56c-4,7.31-9.75,11.85-12.89,10.14s-2.46-9,1.52-16.33a26.35,26.35,0,0,1,7.46-9Z"/><path class="cls-5" d="M288.37,166.33A48.79,48.79,0,0,1,284,177.05c-6.12,11.26-15,18.26-19.85,15.63s-3.79-13.89,2.33-25.15a47.52,47.52,0,0,1,7.39-10.27l3.87,2.43a26.35,26.35,0,0,0-7.46,9c-4,7.32-4.66,14.62-1.52,16.33s8.91-2.83,12.89-10.14a27.37,27.37,0,0,0,3.45-10.56Z"/><ellipse class="cls-6" cx="292.4" cy="169.72" rx="4.1" ry="1.92" transform="translate(6.59 350.32) rotate(-62.42)"/><circle class="cls-7" cx="396.37" cy="403.08" r="4.06"/><path class="cls-8" d="M396.26,391.6c.13-.12,12.39.55,11.49,13"/><path class="cls-8" d="M398.21,379.65c.2-.18,20.09,3.06,20.8,23.6"/><path class="cls-8" d="M399.76,369.73c.29-.25,29.07,4.28,29.95,34"/><path class="cls-3" d="M340.46,139.36a0,0,0,0,0,0,0"/><path class="cls-3" d="M340.45,139.35a14.37,14.37,0,0,0-2.06-1.23"/><path class="cls-4" d="M206.62,194.94,194.8,222.09H174.14l14.61-33.58h0A23.7,23.7,0,0,0,205.31,195C205.75,195,206.19,195,206.62,194.94Z"/><path class="cls-9" d="M338.38,138.11c-9.7-4.79-24.56.7-36.16,13h0a64.53,64.53,0,0,0-5.65,6.88,63.68,63.68,0,0,0-5.79,9.84l-2.41-1.5-3.25-2-7.36-4.6-3.87-2.43L267,152.92c-.35.49-.69,1-1,1.5-11-13.84-22.62-3.62-22.62-3.62s-11.85,10.88-23.81,6.5-49.84-31.5-57-34.09a60,60,0,0,0-16-2.85h0a50.28,50.28,0,0,1,75.29-51.62Z"/><path class="cls-10" d="M265.93,154.42h0c-1.57,2.35-3.09,4.84-4.52,7.48-10.49,19.27-12.66,38.56-5.28,44.36l-32.71-19.46-37-22.05-16-9.5a50.15,50.15,0,0,1-23.9-34.9,60,60,0,0,1,16,2.85c7.17,2.59,45,29.7,57,34.09s23.81-6.5,23.81-6.5S254.94,140.58,265.93,154.42Z"/><path class="cls-11" d="M302.22,151.11a49.85,49.85,0,0,1-.94,5.78A84.19,84.19,0,0,1,292.81,179a93.4,93.4,0,0,1-6.93,10.9c-9.73,13.15-21,20.48-28.05,17.4a6.63,6.63,0,0,1-.6-.29,8,8,0,0,1-1.1-.72c-7.38-5.8-5.21-25.09,5.28-44.36,1.43-2.64,2.95-5.13,4.52-7.48h0c.34-.51.68-1,1-1.5l6.93,4.34a47.52,47.52,0,0,0-7.39,10.27c-6.12,11.26-7.16,22.52-2.33,25.15s13.73-4.37,19.85-15.63a48.79,48.79,0,0,0,4.35-10.72l2.41,1.5a63.68,63.68,0,0,1,5.79-9.84A64.53,64.53,0,0,1,302.22,151.11Z"/><path class="cls-5" d="M340.56,180.48h0l-39.27-23.59a49.85,49.85,0,0,0,.94-5.78h0c11.6-12.29,26.46-17.78,36.16-13h0l2.06,1.23h0C350.31,146.37,349.79,164,340.56,180.48Z"/><path class="cls-9" d="M223.42,186.81a23.15,23.15,0,0,1-16.8,8.13c-.43,0-.87,0-1.31,0a23.7,23.7,0,0,1-16.54-6.46h0A18.46,18.46,0,0,1,183,175.24a17.94,17.94,0,0,1,3.42-10.48Z"/><path class="cls-12" d="M296.6,157.26,512.91,280l-80.69,90.85L261.9,189.15s-5.18-9.58,11.34-31.89L290.78,168Z"/><path class="cls-13" d="M87.09,369.72v53.79A8.51,8.51,0,0,1,78.58,432h-41a8,8,0,0,1-8-8v-54.3Z"/><path class="cls-13" d="M58.33,369.72H41.48L29.56,314.91s14.37,18,22.84,34.54C56.36,357.2,59,364.62,58.33,369.72Z"/><path class="cls-13" d="M89.48,334.66l-12.6,35.06h-17s.75-6.55,12.65-19.37A173.46,173.46,0,0,1,89.48,334.66Z"/><path class="cls-13" d="M72.51,350.35c-11.9,12.82-12.65,19.37-12.65,19.37H58.33c.7-5.1-2-12.52-5.93-20.27,0,0,2.61-28.41,9.25-38.71C61.65,310.74,71.54,332.26,72.51,350.35Z"/><path class="cls-14" d="M118.18,220.23V414.61H383V220.23Zm253.68,175H128.57V232.9H371.86Z"/><rect class="cls-15" x="128.57" y="232.9" width="243.29" height="162.32"/><path class="cls-16" d="M383.33,414.92H117.85l-20.58,19.2h306ZM197.5,430.32l7.6-7.09h98.08l9.12,7.09Z"/><line class="cls-3" x1="383.33" y1="414.92" x2="383.01" y2="414.61"/><line class="cls-3" x1="118.18" y1="414.61" x2="117.85" y2="414.92"/><rect class="cls-17" x="97.27" y="434.12" width="306.01" height="8.37"/><polygon class="cls-17" points="312.3 430.32 197.5 430.32 205.1 423.23 303.18 423.23 312.3 430.32"/><path class="cls-3" d="M276.75,335.84l-25.11-43a5.06,5.06,0,0,0-8.73,0l-25.11,43a5.05,5.05,0,0,0,4.36,7.59h50.23A5.05,5.05,0,0,0,276.75,335.84Zm-25.58,3.3h-7.28v-5.49h7.28Zm0-8.41h-7.45l-.93-29.62h9.33Z"/><path class="cls-18" d="M283.16,333.36l-26-44.51a11,11,0,0,0-19.08,0l-26,44.51a11,11,0,0,0,9.53,16.6h51.94A11,11,0,0,0,283.16,333.36Zm-10.77,10.07H222.16a5.05,5.05,0,0,1-4.36-7.59l25.11-43a5.06,5.06,0,0,1,8.73,0l25.11,43A5.05,5.05,0,0,1,272.39,343.43Z"/><path class="cls-3" d="M276.75,335.84l-25.11-43a5.06,5.06,0,0,0-8.73,0l-25.11,43a5.05,5.05,0,0,0,4.36,7.59h50.23A5.05,5.05,0,0,0,276.75,335.84Zm-25.58,3.3h-7.28v-5.49h7.28Zm0-8.41h-7.45l-.93-29.62h9.33Z"/><polygon class="cls-19" points="252.12 301.12 251.17 330.74 243.72 330.74 242.79 301.12 252.12 301.12"/><rect class="cls-19" x="243.89" y="333.65" width="7.28" height="5.49"/></g></g></svg>