<svg xmlns="http://www.w3.org/2000/svg" viewBox="0 0 424.97 559.13"><defs><style>.cls-1{fill:#3f3d56;}.cls-2{fill:#01aaa5;}.cls-3{opacity:0.1;isolation:isolate;}.cls-4{fill:#fff;}.cls-5{fill:#ffb8b8;}.cls-6{fill:#2f2e41;}.cls-7{fill:#ccc;}</style></defs><g id="Layer_2" data-name="Layer 2"><g id="Layer_1-2" data-name="Layer 1"><path class="cls-1" d="M208.53,498.58c-.46-.16-47.81-19.05-95.15-72.32a322.93,322.93,0,0,1-58-93.46c-17.13-42.31-25.82-89.19-25.82-139.36,0-11.09,6.87-33.11,32.61-45.37,25-11.9,140.6-59.18,147.11-61.85,2.91-1.24,21.06-8.36,38.08.17,9,3.71,134.09,55.07,147.87,60.81,18,7.5,29.62,25.88,29.62,46.83,0,.49,0,1.18,0,2.09a359.44,359.44,0,0,1-20.34,126.66A309.64,309.64,0,0,1,352,416.19c-27.59,33.44-62.64,61-104.2,81.79l-1.15.58-1.23.34a77.71,77.71,0,0,1-19.25,2.49A51.63,51.63,0,0,1,208.53,498.58ZM398.59,196.63c0-1.13,0-2,0-2.6,0-8.19-3.53-18.41-13.43-22.54-14.16-5.9-146.91-60.42-148.25-61l-1.11-.52c-5.52-2.89-13.54-.67-16,.39l-.34.14C218.16,111,98,160.16,73.5,171.83,57.2,179.59,56,191.9,55.88,193.62c0,85.18,26,157.57,77.17,215.16,37,41.68,76.67,62.23,84.5,65.08,6.16,2.25,15.61.87,19.71-.05C386.23,398.34,399.72,254.91,398.59,196.63Z"/><path class="cls-2" d="M214.4,98.35S93,148,67.84,160s-25.12,33.49-25.12,33.49c0,211.7,157.88,288.25,170.32,292.78s28.83,0,28.83,0C422.47,395.67,411.71,208.39,411.71,194s-7.18-28.7-21.53-34.68-148.31-61-148.31-61C229.31,91.77,214.4,98.35,214.4,98.35Z"/><path class="cls-3" d="M361.47,198.82c1.2,171-134,236.09-134,236.09V141.41Z"/><polygon class="cls-4" points="207.52 352.35 164.46 297 189.5 277.52 209.89 303.73 278.75 231.03 301.78 252.85 207.52 352.35"/><polygon class="cls-5" points="106.38 479.67 82.08 479.67 89.91 543.17 106.37 543.18 106.38 479.67"/><path class="cls-6" d="M110.57,559.13H57.48v-.67A20.66,20.66,0,0,1,78.15,537.8h32.42Z"/><polygon class="cls-5" points="51.02 479.67 26.72 479.67 34.55 543.17 51.02 543.18 51.02 479.67"/><path class="cls-6" d="M55.21,559.13H2.13v-.67A20.66,20.66,0,0,1,22.79,537.8H55.21Z"/><polygon class="cls-6" points="137.66 303.83 130.66 391.33 108.49 519.65 76.55 521.63 80.49 320.17 137.66 303.83"/><path class="cls-6" d="M44.33,238.5l84,1.17,9.34,64.16L80.49,330.66,66.5,382l-8,141.77-37.26,1.07,4.47-238.5Z"/><circle class="cls-5" cx="89.9" cy="44.28" r="28.57"/><polygon class="cls-7" points="106.66 88.35 121.32 106.68 114.33 252.5 59.5 251.34 50.16 124.18 61.83 91.52 66.21 84.89 106.66 88.35"/><path class="cls-6" d="M131.82,161.51l12.84,49-12.84,49,21,28,18.67-88.66s-14-72.33-15.17-80.49-3.5-9.34-3.5-9.34l-9.33,1.17Z"/><polygon class="cls-6" points="38.5 180.18 30.33 195.34 28 221.01 32.66 250.17 16.33 277 0 203.51 17.5 109.02 24.5 109.02 38.5 180.18"/><path class="cls-6" d="M68.36,62l.35,1.12S48.12,55.37,54.84,24.8C59,5.73,75.62,1.42,88.6.12s35.07,7.8,35.07,18.19S100.29,26.1,91.2,23.5,78.22,43,78.22,43L73,44.28A17.33,17.33,0,0,0,68.36,62Z"/><path class="cls-6" d="M135.32,177.84l-4.66,44.33L140,249l5.83,25.67s0,24.5-23.33,25.66-43.16-73.49-43.16-73.49-3.5,16.33-5.84,25.66-42,46.67-42,46.67S22.17,298,14,279.33s16.33-36.16,16.33-36.16l7-24.5L35,188.34,18.67,109,67.08,83.93,79.33,203.51,105.58,87.43l8.75,6.42L151.66,109Z"/></g></g></svg>